<?xml version="1.0" encoding="UTF-8" standalone="no"?>
<svg xmlns:dc="http://purl.org/dc/elements/1.1/" xmlns:cc="http://creativecommons.org/ns#" xmlns:rdf="http://www.w3.org/1999/02/22-rdf-syntax-ns#" xmlns:svg="http://www.w3.org/2000/svg" xmlns="http://www.w3.org/2000/svg" version="1.1" width="434.80457mm" viewBox="0 0 1540.6461 745.5929" height="210.42288mm" id="svg3569">
  <defs id="defs3571">
    <linearGradient y2="231.09" y1="770.94" gradientTransform="translate(729.67,-22.021)" x2="-190.88" gradientUnits="userSpaceOnUse" x1="-543.25" id="linearGradient3770-4">
      <stop offset="0" stop-opacity=".82639" id="stop3015-9-1"/>
      <stop offset="1" id="stop3017-0-0"/>
    </linearGradient>
    <linearGradient x1="598.60999" x2="881.5" gradientTransform="translate(-368.01,35.356)" y1="490.82999" gradientUnits="userSpaceOnUse" y2="490.82999" id="linearGradient3793">
      <stop offset="0" stop-opacity=".82639" id="stop3015-9"/>
      <stop offset="1" id="stop3017-0"/>
    </linearGradient>
  </defs>
  <metadata id="metadata3574">

  </metadata>
  <g style="fill:none;stroke:#000000;stroke-width:10.24499989px" transform="translate(-299.99554,85.915828)" id="layer1">
    <path d="m 300,45.898 1535.4,1.3376 0.1198,-7.5919" id="path4394-5"/>
    <path d="m 300,155.9 1535.4,1.3376 0.1198,-7.5919" id="path3368"/>
    <path d="m 300,265.9 1535.4,1.3376 0.1198,-7.5918" id="path3370"/>
    <path d="m 300,375.9 1535.4,1.3376 0.1198,-7.5919" id="path3372"/>
    <path d="m 300,485.9 1535.4,1.3376 0.1198,-7.5919" id="path3374"/>
  </g>
  <g style="display:none" display="none" transform="translate(-299.99554,85.915828)" id="layer2">
    <g transform="matrix(1.0134,0,0,1.0355,158.25,-280.29)" id="layer1-8">
      <path style="fill:url(#linearGradient3770-4);fill-rule:evenodd;stroke:#000000" d="m 190.85,451.25 c 11.661,14.719 32.323,24.491 55.844,24.491 36.401,0 65.889,-23.372 65.889,-52.214 0,-28.842 -29.488,-52.214 -65.889,-52.214 -20.314,4.1522 -28.593,9.0007 -33.143,-2.9091 17.976,-54.327 46.918,-66.709 96.546,-66.709 65.914,0 96.969,59.897 96.969,142.97 -18.225,190.63 -205.95,286.75 -246.57,316.19 5.6938,13.103 5.3954,12.631 5.3954,12.009 189.78,-86.203 330.69,-204.43 330.69,-320.74 0,-92.419 -58.579,-175.59 -187.72,-172.8 -77.575,0 -170.32,86.203 -118,171.93 z m 328.1,-89.88 c 0,17.852 14.471,32.323 32.323,32.323 17.852,0 32.323,-14.471 32.323,-32.323 0,-17.852 -14.471,-32.323 -32.323,-32.323 -17.852,0 -32.323,14.471 -32.323,32.323 z m 0,136.75 c 0,17.852 14.471,32.323 32.323,32.323 17.852,0 32.323,-14.471 32.323,-32.323 0,-17.852 -14.471,-32.323 -32.323,-32.323 -17.852,0 -32.323,14.471 -32.323,32.323 z" id="path3"/>
    </g>
  </g>
  <g transform="translate(-299.99554,-349.91417)" id="layer3">
    <g transform="translate(93.726,196.53)" id="layer1-84">
      <path style="clip-rule:evenodd;fill:url(#linearGradient3793);fill-rule:evenodd;stroke:#000000" d="m 278.89,840.5 c 0,23.811 27.144,51.133 48.193,55.108 0,0 22.508,5.6134 41.03,1.1224 3.3461,0.75146 59.498,-9.5416 60.62,-84.755 l -11.843,-91.536 c 7.8919,-1.3481 33.643,-13.763 41.592,-18.478 21.812,-12.943 31.355,-31.636 39.852,-45.465 9.5416,-20.768 15.155,-34.946 15.155,-57.556 0,-57.185 -46.341,-103.54 -103.5,-103.54 -8.2386,0 -16.243,0.97722 -23.934,2.7962 l -10.216,-73.464 c 38.684,-43.006 77.897,-95.869 91.065,-144.31 12.91,-63.989 6.7357,-107.21 -27.504,-125.73 -31.432,-7.2969 -69.589,35.643 -92.052,97.666 -14.594,33.116 3.9976,96.385 12.349,122.36 -61.528,58.983 -122.74,101.28 -129.1,203.51 0,80.053 64.874,144.94 144.89,144.94 7.6452,0 20.275,0.179 34.643,-1.6835 l 6.7583,91.412 c 0,0 2.593,66.862 -48.293,75.922 -20.196,3.5928 -39.674,7.7565 -34.07,-5.6118 15.739,-8.1967 34.07,-21.263 34.07,-42.704 0,-26.683 -20.085,-48.316 -44.849,-48.316 -24.774,0 -44.859,21.633 -44.859,48.316 z m 90.975,-409.14 9.5303,68.634 c -42.22,13.057 -72.901,52.426 -72.901,98.946 0,52.649 62.945,77.202 61.239,64.706 -24.54,-10.587 -33.633,-22.486 -33.633,-50.911 0,-32.129 21.958,-59.115 51.673,-66.806 l 22.665,163.41 c -5.0974,1.3804 -10.598,2.5479 -16.558,3.4799 -86.249,-1.7287 -126.79,-47.632 -126.79,-127.68 0.002,-44.846 52.809,-96.576 104.77,-153.77 z m 45.197,275.97 -22.599,-162.78 c 3.4574,-0.5386 7.0163,-0.83047 10.632,-0.83047 38.1,0 68.994,30.905 68.994,69.017 -0.76275,30.67 -2.2237,76.336 -57.027,94.59 z m -48.06,-342.71 c -15.548,-52.459 -1.4932,-78.603 7.6323,-98.699 21.565,-47.452 40.537,-64.706 59.857,-80.108 25.124,9.8561 13.784,80.108 10.012,80.108 -11.831,41.446 -54.276,74.395 -77.502,98.699 z" id="path11"/>
    </g>
  </g>
</svg>