<?xml version="1.0" encoding="UTF-8" standalone="no"?>
<svg id="svg3569" xmlns:inkscape="http://www.inkscape.org/namespaces/inkscape" xmlns:rdf="http://www.w3.org/1999/02/22-rdf-syntax-ns#" xmlns="http://www.w3.org/2000/svg" sodipodi:docname="llavefa.svg" height="144.62mm" width="434.8mm" version="1.1" xmlns:cc="http://creativecommons.org/ns#" xmlns:dc="http://purl.org/dc/elements/1.1/" inkscape:version="0.91 r13725" viewBox="0 0 1540.63 512.41641" xmlns:sodipodi="http://sodipodi.sourceforge.net/DTD/sodipodi-0.dtd">
 <sodipodi:namedview id="namedview17" fit-margin-left="0" inkscape:zoom="0.25898496" borderopacity="1" inkscape:current-layer="svg3569" inkscape:cx="274.14719" inkscape:cy="256.20818" inkscape:window-maximized="0" showgrid="false" fit-margin-right="0" bordercolor="#666666" inkscape:window-x="0" guidetolerance="10" objecttolerance="10" inkscape:window-y="0" fit-margin-bottom="0" inkscape:window-width="640" inkscape:pageopacity="0" inkscape:pageshadow="2" pagecolor="#ffffff" gridtolerance="10" inkscape:window-height="480" fit-margin-top="0"/>
 <defs id="defs3571">
  <linearGradient id="linearGradient3770-4" x1="-543.25" gradientUnits="userSpaceOnUse" y1="770.94" gradientTransform="translate(729.67,-22.021)" x2="-190.88" y2="231.09">
   <stop id="stop3015-9-1" stop-opacity=".82639" offset="0"/>
   <stop id="stop3017-0-0" offset="1"/>
  </linearGradient>
 </defs>
 <metadata id="metadata3574">
  <rdf:RDF>
   <cc:Work rdf:about="">
    <dc:format>image/svg+xml</dc:format>
    <dc:type rdf:resource="http://purl.org/dc/dcmitype/StillImage"/>
    <dc:title/>
   </cc:Work>
  </rdf:RDF>
 </metadata>
 <g id="layer1" transform="translate(-300 -8.3664)" stroke="#000" stroke-width="10.245px" fill="none">
  <path id="path4394-5" d="m300 45.898 1535.4 1.3376 0.1198-7.5919" inkscape:connector-curvature="0"/>
  <path id="path3368" d="m300 155.9 1535.4 1.3376 0.1198-7.5919" inkscape:connector-curvature="0"/>
  <path id="path3370" d="m300 265.9 1535.4 1.3376 0.1198-7.5918" inkscape:connector-curvature="0"/>
  <path id="path3372" d="m300 375.9 1535.4 1.3376 0.1198-7.5919" inkscape:connector-curvature="0"/>
  <path id="path3374" d="m300 485.9 1535.4 1.3376 0.1198-7.5919" inkscape:connector-curvature="0"/>
 </g>
 <g id="layer2" transform="translate(-300 -8.3664)">
  <g id="layer1-8" transform="matrix(1.0134 0 0 1.0355 158.25 -280.29)">
   <path id="path3" d="m190.85 451.25c11.661 14.719 32.323 24.491 55.844 24.491 36.401 0 65.889-23.372 65.889-52.214s-29.488-52.214-65.889-52.214c-20.314 4.1522-28.593 9.0007-33.143-2.9091 17.976-54.327 46.918-66.709 96.546-66.709 65.914 0 96.969 59.897 96.969 142.97-18.225 190.63-205.95 286.75-246.57 316.19 5.6938 13.103 5.3954 12.631 5.3954 12.009 189.78-86.203 330.69-204.43 330.69-320.74 0-92.419-58.579-175.59-187.72-172.8-77.575 0-170.32 86.203-118 171.93zm328.1-89.88c0 17.852 14.471 32.323 32.323 32.323s32.323-14.471 32.323-32.323-14.471-32.323-32.323-32.323-32.323 14.471-32.323 32.323zm0 136.75c0 17.852 14.471 32.323 32.323 32.323s32.323-14.471 32.323-32.323-14.471-32.323-32.323-32.323-32.323 14.471-32.323 32.323z" fill-rule="evenodd" inkscape:connector-curvature="0" stroke="#000" fill="url(#linearGradient3770-4)"/>
  </g>
 </g>
</svg>